<svg xmlns="http://www.w3.org/2000/svg" xmlns:xlink="http://www.w3.org/1999/xlink" contentStyleType="text/css" height="603px" preserveAspectRatio="none" style="width:423px;height:603px;background:#FFFFFF;" version="1.1" viewBox="0 0 423 603" width="423px" zoomAndPan="magnify"><defs/><g><!--cluster 2a5444ec5c3990448cbcf91032b6002f--><g id="cluster_2a5444ec5c3990448cbcf91032b6002f"><polygon fill="none" points="54.5,16,64.5,6,355.5,6,355.5,485.18,345.5,495.18,54.5,495.18,54.5,16" style="stroke:#181818;stroke-width:1.0;"/><line style="stroke:#181818;stroke-width:1.0;" x1="345.5" x2="355.5" y1="16" y2="6"/><line style="stroke:#181818;stroke-width:1.0;" x1="54.5" x2="345.5" y1="16" y2="16"/><line style="stroke:#181818;stroke-width:1.0;" x1="345.5" x2="345.5" y1="16" y2="495.18"/><text fill="#000000" font-family="sans-serif" font-size="14" font-weight="bold" lengthAdjust="spacing" textLength="126" x="138" y="31.9951">Desafio_crawler</text></g><!--entity dae99c1deda5fbd971ff38099510c009--><g id="elem_dae99c1deda5fbd971ff38099510c009"><rect fill="#F1F1F1" height="78.8906" rx="2.5" ry="2.5" style="stroke:#181818;stroke-width:0.5;" width="165" x="167" y="46"/><rect fill="#F1F1F1" height="10" style="stroke:#181818;stroke-width:0.5;" width="15" x="312" y="51"/><rect fill="#F1F1F1" height="2" style="stroke:#181818;stroke-width:0.5;" width="4" x="310" y="53"/><rect fill="#F1F1F1" height="2" style="stroke:#181818;stroke-width:0.5;" width="4" x="310" y="57"/><text fill="#000000" font-family="sans-serif" font-size="14" font-weight="bold" lengthAdjust="spacing" textLength="125" x="182" y="78.9951">desafio_crawler</text><text fill="#000000" font-family="sans-serif" font-size="14" lengthAdjust="spacing" textLength="4" x="182" y="95.292">&#160;</text><text fill="#000000" font-family="sans-serif" font-size="14" lengthAdjust="spacing" textLength="4" x="182" y="111.5889">&#160;</text></g><!--entity 1ca1e1add66c8ec828899de264ff3672--><g id="elem_1ca1e1add66c8ec828899de264ff3672"><ellipse cx="312.5" cy="214.89" fill="#F1F1F1" rx="8" ry="8" style="stroke:#181818;stroke-width:0.5;"/><text fill="#000000" font-family="sans-serif" font-size="14" lengthAdjust="spacing" textLength="36" x="294.5" y="244.8851">8000</text></g><!--entity ae4b033a022fb675372d542305dbf9e5--><g id="elem_ae4b033a022fb675372d542305dbf9e5"><rect fill="#F1F1F1" height="39.2969" rx="2.5" ry="2.5" style="stroke:#181818;stroke-width:0.5;" width="61" x="70" y="439.89"/><polygon fill="#F1F1F1" points="114,444.89,114,458.89,126,458.89,126,450.89,120,444.89,114,444.89" style="stroke:#181818;stroke-width:0.5;"/><line style="stroke:#181818;stroke-width:0.5;" x1="120" x2="120" y1="444.89" y2="450.89"/><line style="stroke:#181818;stroke-width:0.5;" x1="126" x2="120" y1="450.89" y2="450.89"/><text fill="#000000" font-family="sans-serif" font-size="14" lengthAdjust="spacing" textLength="31" x="80" y="465.8851">/app</text></g><!--entity 163c4df319e59089d6a1a8439fbcf3ef--><g id="elem_163c4df319e59089d6a1a8439fbcf3ef"><rect fill="#F1F1F1" height="39.2969" rx="2.5" ry="2.5" style="stroke:#181818;stroke-width:0.5;" width="173" x="166" y="439.89"/><polygon fill="#F1F1F1" points="322,444.89,322,458.89,334,458.89,334,450.89,328,444.89,322,444.89" style="stroke:#181818;stroke-width:0.5;"/><line style="stroke:#181818;stroke-width:0.5;" x1="328" x2="328" y1="444.89" y2="450.89"/><line style="stroke:#181818;stroke-width:0.5;" x1="334" x2="328" y1="450.89" y2="450.89"/><text fill="#000000" font-family="sans-serif" font-size="14" lengthAdjust="spacing" textLength="143" x="176" y="465.8851">/var/run/docker.sock</text></g><!--entity 1624c420083928ef3e240dd88f2e52f0--><g id="elem_1624c420083928ef3e240dd88f2e52f0"><ellipse cx="398.5" cy="349.89" fill="#F1F1F1" rx="8" ry="8" style="stroke:#181818;stroke-width:0.5;"/><text fill="#000000" font-family="sans-serif" font-size="14" lengthAdjust="spacing" textLength="36" x="380.5" y="379.8851">8000</text></g><!--entity a343fa5530d012ed5668c5ae431f147d--><g id="elem_a343fa5530d012ed5668c5ae431f147d"><rect fill="#F1F1F1" height="39.2969" rx="2.5" ry="2.5" style="stroke:#181818;stroke-width:0.5;" width="145" x="7" y="558.18"/><polygon fill="#F1F1F1" points="135,563.18,135,577.18,147,577.18,147,569.18,141,563.18,135,563.18" style="stroke:#181818;stroke-width:0.5;"/><line style="stroke:#181818;stroke-width:0.5;" x1="141" x2="141" y1="563.18" y2="569.18"/><line style="stroke:#181818;stroke-width:0.5;" x1="147" x2="141" y1="569.18" y2="569.18"/><text fill="#000000" font-family="sans-serif" font-size="14" lengthAdjust="spacing" textLength="115" x="17" y="584.1751">./desafio_crawler</text></g><!--entity d2e4048eb785166d505ec373eb6db9fc--><g id="elem_d2e4048eb785166d505ec373eb6db9fc"><rect fill="#F1F1F1" height="39.2969" rx="2.5" ry="2.5" style="stroke:#181818;stroke-width:0.5;" width="173" x="187" y="558.18"/><polygon fill="#F1F1F1" points="343,563.18,343,577.18,355,577.18,355,569.18,349,563.18,343,563.18" style="stroke:#181818;stroke-width:0.5;"/><line style="stroke:#181818;stroke-width:0.5;" x1="349" x2="349" y1="563.18" y2="569.18"/><line style="stroke:#181818;stroke-width:0.5;" x1="355" x2="349" y1="569.18" y2="569.18"/><text fill="#000000" font-family="sans-serif" font-size="14" lengthAdjust="spacing" textLength="143" x="197" y="584.1751">/var/run/docker.sock</text></g><!--link dae99c1deda5fbd971ff38099510c009 to 1ca1e1add66c8ec828899de264ff3672--><g id="link_dae99c1deda5fbd971ff38099510c009_1ca1e1add66c8ec828899de264ff3672"><path codeLine="15" d="M268.74,125.37 C282.93,154.07 301.04,190.71 308.75,206.31 " fill="none" id="dae99c1deda5fbd971ff38099510c009-1ca1e1add66c8ec828899de264ff3672" style="stroke:#181818;stroke-width:1.0;"/></g><!--link 1ca1e1add66c8ec828899de264ff3672 to 1624c420083928ef3e240dd88f2e52f0--><g id="link_1ca1e1add66c8ec828899de264ff3672_1624c420083928ef3e240dd88f2e52f0"><path codeLine="16" d="M317.62,223.81 C332.95,247.52 378.36,317.74 393.51,341.17 " fill="none" id="1ca1e1add66c8ec828899de264ff3672-1624c420083928ef3e240dd88f2e52f0" style="stroke:#181818;stroke-width:1.0;"/></g><!--link ae4b033a022fb675372d542305dbf9e5 to a343fa5530d012ed5668c5ae431f147d--><g id="link_ae4b033a022fb675372d542305dbf9e5_a343fa5530d012ed5668c5ae431f147d"><path codeLine="17" d="M97.08,479.48 C93.17,501.1 86.82,536.27 82.92,557.9 " fill="none" id="ae4b033a022fb675372d542305dbf9e5-a343fa5530d012ed5668c5ae431f147d" style="stroke:#181818;stroke-width:1.0;"/><text fill="#000000" font-family="sans-serif" font-size="13" lengthAdjust="spacing" textLength="14" x="91.5" y="524.2469">rw</text></g><!--link dae99c1deda5fbd971ff38099510c009 to ae4b033a022fb675372d542305dbf9e5--><g id="link_dae99c1deda5fbd971ff38099510c009_ae4b033a022fb675372d542305dbf9e5"><path codeLine="18" d="M233.98,125.21 C202.3,204.32 133.4698,376.1897 110.2398,434.2197 " fill="none" id="dae99c1deda5fbd971ff38099510c009-to-ae4b033a022fb675372d542305dbf9e5" style="stroke:#181818;stroke-width:1.0;stroke-dasharray:7.0,7.0;"/><polygon fill="#181818" points="108.01,439.79,115.0683,432.9212,109.8682,435.1481,107.6412,429.948,108.01,439.79" style="stroke:#181818;stroke-width:1.0;"/><text fill="#000000" font-family="sans-serif" font-size="13" lengthAdjust="spacing" textLength="23" x="174.5" y="286.9569">use</text></g><!--link 163c4df319e59089d6a1a8439fbcf3ef to d2e4048eb785166d505ec373eb6db9fc--><g id="link_163c4df319e59089d6a1a8439fbcf3ef_d2e4048eb785166d505ec373eb6db9fc"><path codeLine="19" d="M255.92,479.48 C259.83,501.1 266.18,536.27 270.08,557.9 " fill="none" id="163c4df319e59089d6a1a8439fbcf3ef-d2e4048eb785166d505ec373eb6db9fc" style="stroke:#181818;stroke-width:1.0;"/><text fill="#000000" font-family="sans-serif" font-size="13" lengthAdjust="spacing" textLength="14" x="264.5" y="524.2469">rw</text></g><!--link dae99c1deda5fbd971ff38099510c009 to 163c4df319e59089d6a1a8439fbcf3ef--><g id="link_dae99c1deda5fbd971ff38099510c009_163c4df319e59089d6a1a8439fbcf3ef"><path codeLine="20" d="M249.81,125.21 C250.45,204.32 251.8314,375.7602 252.3014,433.7902 " fill="none" id="dae99c1deda5fbd971ff38099510c009-to-163c4df319e59089d6a1a8439fbcf3ef" style="stroke:#181818;stroke-width:1.0;stroke-dasharray:7.0,7.0;"/><polygon fill="#181818" points="252.35,439.79,256.277,430.7579,252.3095,434.7902,248.2772,430.8227,252.35,439.79" style="stroke:#181818;stroke-width:1.0;"/><text fill="#000000" font-family="sans-serif" font-size="13" lengthAdjust="spacing" textLength="23" x="251.5" y="286.9569">use</text></g><!--SRC=[bLBDRXCn4BxxAQmzqKZTZ3ssr-R0gM-141hFZ554kXjjKb89zTrPKWu58HbEldpp_PgEn-NwU7W-p5_Cl8ZQuK7Fr0xBPrxfUjHri7Isdc88GJaobW8XPAxSYWFqDG7uPhyRoylZQPbrlbWXBOMTg51iLShaMiCCfKG7353iHxFRoUyokvqnvfDvTsU7300tLSVar958IfoLiy-v556VmiQN9czelHmQySKEUpgTRZUaeG8YWVUjfYdYv2K6Zn2bjgBnxSqtMlVhqxoNXR_gEfwtvrKt8GTfw3PyWLmaaQCSiBGjDMepBt_uJ3vmy00PYy-wGNm0aPoRr-WRlD4Sz_ANUWa3DeeHGS1vbPXIvhX5GTTScEHVJ8lN025hdN9qAKc4g8mJQarIIsFJNULUxlkLzm2lBDr2EYlTM7gjsFTsMAz3FzWuoZX-w7wDdtnFPnrCR_-RkrxV_-kkA_hBtGy0]--></g></svg>